/* XPM */
static char *collectabletile1714491432[] = {
/* columns rows colors chars-per-pixel */
"32 32 4 1 ",
"  c #8A6F30",
". c #DF7126",
"X c #FBF236",
"o c #8F974A",
/* pixels */
"..          oooooooo          ..",
". .        oooooooooo        . .",
" ...      oooooooooooo      ... ",
"  . .    oooooooooooooo    . .  ",
"   ...  oooooooooooooooo  ...   ",
"    . .oooooooooooooooooo. .    ",
"     ...oooooooooooooooo...     ",
"     o.o.ooooooXXoooooo.o.o     ",
"    ooo...ooooXXXXoooo...ooo    ",
"   ooooo.o.ooXXXXXXoo.o.ooooo   ",
"  ooooooo...XXXXXXXX...ooooooo  ",
" ooooooooo.X.XXXXXX.X.ooooooooo ",
"ooooooooooX...XXXX...Xoooooooooo",
"oooooooooXXX.X.XX.X.XXXooooooooo",
".oo.oo.oX.XX........XX.Xo.oo.oo.",
"...............XX...............",
"...............XX...............",
".oo.oo.oX.XX........XX.Xo.oo.oo.",
"oooooooooXXX.X.XX.X.XXXooooooooo",
"ooooooooooX...XXXX...Xoooooooooo",
" ooooooooo.X.XXXXXX.X.ooooooooo ",
"  ooooooo...XXXXXXXX...ooooooo  ",
"   ooooo.o.ooXXXXXXoo.o.ooooo   ",
"    ooo...ooooXXXXoooo...ooo    ",
"     o.o.ooooooXXoooooo.o.o     ",
"     ...oooooooooooooooo...     ",
"    . .oooooooooooooooooo. .    ",
"   ...  oooooooooooooooo  ...   ",
"  . .    oooooooooooooo    . .  ",
" ...      oooooooooooo      ... ",
". .        oooooooooo        . .",
"..          oooooooo          .."
};
