/* XPM */
static char *exittile1714493578[] = {
/* columns rows colors chars-per-pixel */
"32 32 4 1 ",
"  c black",
". c #222034",
"X c #323C39",
"o c #3F3F74",
/* pixels */
"XXXXXXXXXXXXXXXXXXXXXXXXXXXXXXXX",
"XXXXXXXXXXXXXooooooXXXXXXXXXXXXX",
"XXXXXXXXXXooooooooooooXXXXXXXXXX",
"XXXXXXXXooooooooooooooooXXXXXXXX",
"XXXXXXXooooooooooooooooooXXXXXXX",
"XXXXXXooooooooooooooooooooXXXXXX",
"XXXXXoooooooo......ooooooooXXXXX",
"XXXXooooooo..........oooooooXXXX",
"XXXooooooo............oooooooXXX",
"XXXoooooo..............ooooooXXX",
"XXoooooo................ooooooXX",
"XXooooo.......    .......oooooXX",
"XXooooo......      ......oooooXX",
"Xooooo......        ......oooooX",
"Xooooo.....          .....oooooX",
"Xooooo.....          .....oooooX",
"Xooooo.....          .....oooooX",
"Xooooo.....          .....oooooX",
"Xooooo......        ......oooooX",
"XXooooo......      ......oooooXX",
"XXooooo.......    .......oooooXX",
"XXoooooo................ooooooXX",
"XXXoooooo..............ooooooXXX",
"XXXooooooo............oooooooXXX",
"XXXXooooooo..........oooooooXXXX",
"XXXXXoooooooo......ooooooooXXXXX",
"XXXXXXooooooooooooooooooooXXXXXX",
"XXXXXXXooooooooooooooooooXXXXXXX",
"XXXXXXXXooooooooooooooooXXXXXXXX",
"XXXXXXXXXXooooooooooooXXXXXXXXXX",
"XXXXXXXXXXXXXooooooXXXXXXXXXXXXX",
"XXXXXXXXXXXXXXXXXXXXXXXXXXXXXXXX"
};
