/* XPM */
static char *grasstileNES1714490728[] = {
/* columns rows colors chars-per-pixel */
"32 32 2 1 ",
"  c #6ABE30",
". c #99E550",
/* pixels */
"                                ",
"                                ",
"              .....             ",
"          .   .......   ..      ",
"  .    ..... ................   ",
"............................    ",
".............................   ",
".............................   ",
"............................    ",
"............................    ",
"............................    ",
".............................   ",
"............................    ",
"............................    ",
"............................    ",
"............................    ",
"............................    ",
".............................   ",
"..............................  ",
"..............................  ",
".............................   ",
".............................   ",
".............................   ",
".............................   ",
"..............................  ",
"..............................  ",
"............................    ",
" ............................   ",
"      .....................     ",
"       .   .....   .....        ",
"             ..                 ",
"                                "
};
