/* XPM */
static char *_e374b9d537947efbfd2ec60c7bc55749Xen3ikjcmKaPHLa[] = {
/* columns rows colors chars-per-pixel */
"32 32 2 1 ",
"  c black",
". c #AC3232",
/* pixels */
"................................",
"................................",
"................................",
"................................",
"................................",
"....          ....          ....",
"...           ....           ...",
"................................",
".....      ..........      .....",
"....        ........        ....",
"...          ......          ...",
"...          ......          ...",
"....        ........        ....",
".....      ..........      .....",
"................................",
"................................",
"................................",
"................................",
"................................",
"................................",
"................................",
"......                    ......",
".....                      .....",
".....                      .....",
"......                    ......",
"................................",
"................................",
"................................",
"................................",
"................................",
"................................",
"................................"
};
