/* XPM */
static char *_6fee1c6e9274368fcccbc6a19720a979wfKBHFKm1h2pkBN[] = {
/* columns rows colors chars-per-pixel */
"32 32 2 1 ",
"  c #595652",
". c #696A6A",
/* pixels */
"          ..    ...   ...      .",
".        ..       ....         .",
" ....... .           ...        ",
"..     ..             ...       ",
" ..    ..            ..         ",
" ......  ....       .. .        ",
"..      ..  ... .....  ....     ",
".      .      ...         .    .",
"       ...      ..        ..... ",
"         ........          ...  ",
"       ......  ..      ... .... ",
"........        ...  ...      ..",
"..     ...     .......         .",
"         .......     ..      ...",
".                     ... .... .",
".                   ... .....   ",
"...             .........   ....",
" ....        .....              ",
"  .. ...........                ",
"   ....        ..               ",
"....  .        .....      ......",
"..........  ....   ........    .",
"     ... .....         ........ ",
"       ...   ...      ....      ",
"         ..    ..   ...  ...    ",
"....  .....     .....      ... .",
"..................  .        ...",
"...    . ..      .  ..      ..  ",
"  ......  ..     .   ..    ..   ",
"           ...  ..    ......    ",
"             ....       ...     ",
"           ......       ........"
};
