/* XPM */
static char *d59ddbc988f3436ffc646238ad43af8dbq1qDjzsgygLgGz0[] = {
/* columns rows colors chars-per-pixel */
"32 32 3 1 ",
"  c #5B6EE1",
". c #639BFF",
"X c #5FCDE4",
/* pixels */
"                                ",
"                                ",
"                                ",
"                                ",
"    ...      XXX      XXXXXX    ",
"   .XXX..            XX.....    ",
"       ..           ...   ..    ",
"                                ",
"                                ",
"         ...XXXX                ",
"         . .....                ",
"                      XX        ",
"                    .XXXX       ",
"                   .. ..X       ",
"                  ..   .XX      ",
"                  .    ..XX     ",
"         XXX            ...     ",
"           XXX                  ",
"     XX                         ",
"   XXX...                       ",
"  ...   .                       ",
"                      XXX       ",
"                      X         ",
"                                ",
"                  XXX           ",
"              ........     XX   ",
"                     ...  XX    ",
"                        XXX     ",
"     XXXXX                      ",
"                                ",
"                                ",
"                                "
};
